<svg width="180" height="180" viewBox="0 0 180 180" fill="none" xmlns="http://www.w3.org/2000/svg">
<circle cx="90" cy="90" r="90" fill="#0142F4" fill-opacity="0.8"/>
<g clip-path="url(#clip0_40_147)">
<path d="M100 65H80L72.5938 53.8906C71.4844 52.2187 72.6719 50 74.6719 50H105.328C107.328 50 108.516 52.2187 107.406 53.8906L100 65ZM80 70H100C100.594 70.3906 101.266 70.8281 102.031 71.3125C110.891 76.9844 130 89.2031 130 115C130 123.281 123.281 130 115 130H65C56.7188 130 50 123.281 50 115C50 89.2031 69.1094 76.9844 77.9688 71.3125C78.7188 70.8281 79.4063 70.3906 80 70ZM93.125 83.75C93.125 82.0312 91.7188 80.625 90 80.625C88.2812 80.625 86.875 82.0312 86.875 83.75V85.9375C85.6875 86.2031 84.5 86.625 83.4063 87.2656C81.2344 88.5625 79.3594 90.8281 79.375 94.125C79.3906 97.2969 81.25 99.2969 83.2344 100.484C84.9531 101.516 87.0938 102.172 88.7969 102.672L89.0625 102.75C91.0313 103.344 92.4688 103.812 93.4375 104.422C94.2344 104.922 94.3437 105.266 94.3594 105.703C94.375 106.484 94.0781 106.953 93.4375 107.344C92.6562 107.828 91.4219 108.125 90.0938 108.078C88.3594 108.016 86.7344 107.469 84.6094 106.75C84.25 106.625 83.875 106.5 83.4844 106.375C81.8438 105.828 80.0781 106.719 79.5312 108.344C78.9844 109.969 79.875 111.75 81.5 112.297C81.7969 112.391 82.125 112.5 82.4531 112.625C83.75 113.078 85.25 113.594 86.8594 113.938V116.25C86.8594 117.969 88.2656 119.375 89.9844 119.375C91.7031 119.375 93.1094 117.969 93.1094 116.25V114.094C94.3594 113.828 95.6094 113.391 96.7344 112.688C98.9688 111.297 100.656 108.922 100.609 105.656C100.562 102.484 98.7812 100.438 96.7656 99.1563C94.9687 98.0313 92.7188 97.3438 90.9688 96.8125L90.8594 96.7812C88.8594 96.1719 87.4375 95.7344 86.4375 95.1406C85.625 94.6562 85.6094 94.375 85.6094 94.0938C85.6094 93.5156 85.8281 93.0781 86.5781 92.6406C87.4219 92.1406 88.7031 91.8437 89.9375 91.8594C91.4375 91.875 93.0937 92.2031 94.8125 92.6719C96.4844 93.1094 98.1875 92.125 98.6406 90.4531C99.0937 88.7812 98.0938 87.0781 96.4219 86.625C95.4063 86.3594 94.2813 86.0937 93.125 85.8906V83.75Z" fill="white"/>
</g>
<path d="M173 90C173 135.84 135.84 173 90 173C44.1604 173 7 135.84 7 90C7 44.1604 44.1604 7 90 7C135.84 7 173 44.1604 173 90ZM10.8253 90C10.8253 133.727 46.273 169.175 90 169.175C133.727 169.175 169.175 133.727 169.175 90C169.175 46.273 133.727 10.8253 90 10.8253C46.273 10.8253 10.8253 46.273 10.8253 90Z" fill="white"/>
<defs>
<clipPath id="clip0_40_147">
<rect width="80" height="80" fill="white" transform="translate(50 50)"/>
</clipPath>
</defs>
</svg>
