<svg width="100%" height="100%" id="svg" viewBox="0 0 1440 590" xmlns="http://www.w3.org/2000/svg" class="transition duration-300 ease-in-out delay-150"><defs><linearGradient id="gradient" x1="0%" y1="50%" x2="100%" y2="50%"><stop offset="5%" stop-color="#3165f3"></stop><stop offset="95%" stop-color="#8ED1FC"></stop></linearGradient></defs><path d="M 0,600 C 0,600 0,200 0,200 C 79.26315789473685,234.8803827751196 158.5263157894737,269.7607655502392 254,244 C 349.4736842105263,218.23923444976077 461.1578947368421,131.83732057416267 562,131 C 662.8421052631579,130.16267942583733 752.8421052631577,214.88995215311007 858,245 C 963.1578947368423,275.1100478468899 1083.4736842105265,250.60287081339715 1183,234 C 1282.5263157894735,217.39712918660285 1361.2631578947367,208.69856459330143 1440,200 C 1440,200 1440,600 1440,600 Z" stroke="none" stroke-width="0" fill="url(#gradient)" fill-opacity="0.53" class="transition-all duration-300 ease-in-out delay-150 path-0"></path><defs><linearGradient id="gradient" x1="0%" y1="50%" x2="100%" y2="50%"><stop offset="5%" stop-color="#3165f3"></stop><stop offset="95%" stop-color="#8ED1FC"></stop></linearGradient></defs><path d="M 0,600 C 0,600 0,400 0,400 C 87.64593301435409,386.8612440191388 175.29186602870817,373.7224880382775 263,364 C 350.70813397129183,354.2775119617225 438.47846889952143,347.9712918660287 548,368 C 657.5215311004786,388.0287081339713 788.7942583732059,434.39234449760767 894,435 C 999.2057416267941,435.60765550239233 1078.3444976076555,390.45933014354074 1165,377 C 1251.6555023923445,363.54066985645926 1345.8277511961724,381.77033492822966 1440,400 C 1440,400 1440,600 1440,600 Z" stroke="none" stroke-width="0" fill="url(#gradient)" fill-opacity="1" class="transition-all duration-300 ease-in-out delay-150 path-1"></path></svg>