<svg width="180" height="180" viewBox="0 0 180 180" fill="none" xmlns="http://www.w3.org/2000/svg">
<circle cx="90" cy="90" r="90" fill="#0142F4" fill-opacity="0.8"/>
<g clip-path="url(#clip0_40_148)">
<path d="M98.7602 80.965C101.755 83.965 107.41 83.15 111.4 79.155C115.39 75.16 116.2 69.495 113.21 66.5C110.215 63.5 104.56 64.31 100.57 68.305C96.5802 72.305 95.7702 77.97 98.7602 80.965Z" fill="white"/>
<path d="M129.055 66.56C127.24 74.23 122.385 84.69 110.855 97.65L109.655 109.69C109.335 112.575 108.045 115.265 105.995 117.32L94.0851 129.25C93.7069 129.632 93.2175 129.885 92.6869 129.973C92.1562 130.06 91.6115 129.978 91.1306 129.737C90.6497 129.496 90.2572 129.11 90.0093 128.632C89.7613 128.155 89.6706 127.612 89.7501 127.08L91.1001 117.585C91.3001 116.185 91.0351 114.62 90.4451 112.805C90.0711 111.695 89.6558 110.599 89.2001 109.52L88.7901 108.51C84.7151 107.525 80.9001 105.2 77.8351 102.125C74.7651 99.05 72.4401 95.23 71.4601 91.15L70.4451 90.735C69.3689 90.2818 68.2765 89.8681 67.1701 89.495C65.3551 88.9 63.7951 88.635 62.3951 88.835L52.9151 90.185C52.3836 90.2631 51.841 90.1714 51.3648 89.923C50.8885 89.6745 50.5028 89.282 50.2628 88.8014C50.0228 88.3209 49.9407 87.7768 50.0282 87.2467C50.1157 86.7167 50.3683 86.2279 50.7501 85.85L62.6601 73.92C64.7101 71.87 67.3951 70.57 70.2801 70.25H70.3101L82.3101 69.06C95.0251 57.75 105.435 52.91 113.115 51.04C117.565 49.955 121.065 49.88 123.515 50.1C124.735 50.215 125.69 50.4 126.365 50.565C126.7 50.65 126.965 50.73 127.165 50.79C128.085 51.09 128.56 51.44 128.92 52.265L129.065 52.63C129.454 53.8004 129.717 55.0088 129.85 56.235C130.125 58.66 130.105 62.125 129.055 66.56ZM104.915 103.935L105.115 103.735L104.58 109.14C104.384 110.867 103.609 112.476 102.38 113.705L95.8901 120.205L96.1601 118.305C96.5201 115.775 95.9901 113.34 95.3001 111.215C95.0478 110.457 94.7744 109.707 94.4801 108.965C98.1701 108.64 101.79 107.065 104.915 103.935ZM76.0251 75C72.9001 78.13 71.3251 81.755 71.0051 85.45C70.2629 85.1555 69.5126 84.8821 68.7551 84.63C66.6351 83.94 64.2051 83.41 61.6751 83.77L59.7751 84.04L66.2751 77.54C67.5001 76.31 69.1051 75.535 70.8251 75.34L76.2251 74.805L76.0251 75ZM123.055 55.195C121.155 55.025 118.22 55.06 114.325 56.01C106.535 57.91 94.7401 63.49 79.6401 78.615C76.5401 81.715 75.6451 85.315 76.2051 88.87C76.7401 92.25 78.6201 95.68 81.4451 98.51C84.2651 101.335 87.6951 103.215 91.0651 103.755C94.6151 104.315 98.2101 103.42 101.305 100.315C116.7 84.9 122.265 73.095 124.085 65.38C125 61.525 124.985 58.655 124.775 56.815C124.724 56.3398 124.649 55.8675 124.55 55.4C124.054 55.3071 123.553 55.2387 123.05 55.195H123.055Z" fill="white"/>
<path d="M85.0451 110.695C81.7203 108.901 78.6805 106.622 76.0251 103.935C73.1783 101.117 70.7969 97.8648 68.9701 94.2999C63.4601 99.2599 59.1451 119.57 59.7751 120.2C60.4001 120.83 79.4551 115.72 85.0451 110.69V110.695Z" fill="white"/>
</g>
<path d="M173 90C173 135.84 135.84 173 90 173C44.1604 173 7 135.84 7 90C7 44.1604 44.1604 7 90 7C135.84 7 173 44.1604 173 90ZM10.8253 90C10.8253 133.727 46.273 169.175 90 169.175C133.727 169.175 169.175 133.727 169.175 90C169.175 46.273 133.727 10.8253 90 10.8253C46.273 10.8253 10.8253 46.273 10.8253 90Z" fill="white"/>
<defs>
<clipPath id="clip0_40_148">
<rect width="80" height="80" fill="white" transform="translate(50 50)"/>
</clipPath>
</defs>
</svg>
