<svg width="180" height="180" viewBox="0 0 180 180" fill="none" xmlns="http://www.w3.org/2000/svg">
<circle cx="90" cy="90" r="90" fill="#0142F4" fill-opacity="0.8"/>
<path d="M67.5 65C64.1848 65 61.0054 66.317 58.6612 68.6612C56.317 71.0054 55 74.1848 55 77.5V80H125V77.5C125 74.1848 123.683 71.0054 121.339 68.6612C118.995 66.317 115.815 65 112.5 65H67.5ZM125 85H55V102.5C55 105.815 56.317 108.995 58.6612 111.339C61.0054 113.683 64.1848 115 67.5 115H112.5C115.815 115 118.995 113.683 121.339 111.339C123.683 108.995 125 105.815 125 102.5V85ZM102.5 100H112.5C113.163 100 113.799 100.263 114.268 100.732C114.737 101.201 115 101.837 115 102.5C115 103.163 114.737 103.799 114.268 104.268C113.799 104.737 113.163 105 112.5 105H102.5C101.837 105 101.201 104.737 100.732 104.268C100.263 103.799 100 103.163 100 102.5C100 101.837 100.263 101.201 100.732 100.732C101.201 100.263 101.837 100 102.5 100Z" fill="white"/>
<path d="M173 90C173 135.84 135.84 173 90 173C44.1604 173 7 135.84 7 90C7 44.1604 44.1604 7 90 7C135.84 7 173 44.1604 173 90ZM10.8253 90C10.8253 133.727 46.273 169.175 90 169.175C133.727 169.175 169.175 133.727 169.175 90C169.175 46.273 133.727 10.8253 90 10.8253C46.273 10.8253 10.8253 46.273 10.8253 90Z" fill="white"/>
</svg>
