<svg width="180" height="180" viewBox="0 0 180 180" fill="none" xmlns="http://www.w3.org/2000/svg">
<circle cx="90" cy="90" r="90" fill="#0142F4" fill-opacity="0.8"/>
<path d="M123.333 77.2067V77.4501C123.333 80.3167 123.333 81.7534 122.643 82.9267C121.953 84.1001 120.697 84.7967 118.19 86.1934L115.547 87.6601C117.367 81.5001 117.977 74.8801 118.2 69.2201L118.233 68.4834L118.24 68.3101C120.41 69.0634 121.63 69.6267 122.39 70.6801C123.333 71.9901 123.333 73.7301 123.333 77.2067ZM56.6665 77.2067V77.4501C56.6665 80.3167 56.6665 81.7534 57.3565 82.9267C58.0465 84.1001 59.3032 84.7967 61.8098 86.1934L64.4565 87.6601C62.6332 81.5001 62.0232 74.8801 61.7998 69.2201L61.7665 68.4834L61.7632 68.3101C59.5898 69.0634 58.3698 69.6267 57.6098 70.6801C56.6665 71.9901 56.6665 73.7334 56.6665 77.2067Z" fill="white"/>
<path fill-rule="evenodd" clip-rule="evenodd" d="M90.0001 56.6667C95.9467 56.6667 100.843 57.19 104.59 57.8233C108.387 58.4633 110.283 58.7833 111.87 60.7367C113.457 62.69 113.37 64.8 113.203 69.02C112.63 83.5167 109.503 101.62 92.5001 103.22V115H97.2667C98.037 115 98.7834 115.268 99.379 115.756C99.9745 116.245 100.382 116.925 100.533 117.68L101.167 120.833H110C110.663 120.833 111.299 121.097 111.768 121.566C112.237 122.034 112.5 122.67 112.5 123.333C112.5 123.996 112.237 124.632 111.768 125.101C111.299 125.57 110.663 125.833 110 125.833H70.0001C69.337 125.833 68.7011 125.57 68.2323 125.101C67.7635 124.632 67.5001 123.996 67.5001 123.333C67.5001 122.67 67.7635 122.034 68.2323 121.566C68.7011 121.097 69.337 120.833 70.0001 120.833H78.8334L79.4667 117.68C79.6177 116.925 80.0257 116.245 80.6212 115.756C81.2167 115.268 81.9631 115 82.7334 115H87.5001V103.22C70.5001 101.62 67.3734 83.5133 66.8001 69.02C66.6301 64.8 66.5467 62.6867 68.1334 60.7367C69.7167 58.7833 71.6134 58.4633 75.4101 57.8233C80.2328 57.0329 85.113 56.646 90.0001 56.6667ZM93.1734 70.6633L92.8467 70.0767C91.5801 67.8 90.9467 66.6667 90.0001 66.6667C89.0534 66.6667 88.4201 67.8 87.1534 70.0767L86.8267 70.6633C86.4667 71.31 86.2867 71.63 86.0067 71.8433C85.7234 72.0567 85.3734 72.1367 84.6734 72.2933L84.0401 72.44C81.5801 72.9967 80.3501 73.2733 80.0567 74.2133C79.7634 75.1567 80.6034 76.1367 82.2801 78.0967L82.7134 78.6033C83.1901 79.16 83.4301 79.4367 83.5367 79.7833C83.6434 80.13 83.6067 80.5 83.5367 81.2433L83.4701 81.92C83.2167 84.5367 83.0901 85.8467 83.8534 86.4267C84.6201 87.0067 85.7734 86.4767 88.0767 85.4167L88.6701 85.1433C89.3267 84.8433 89.6534 84.6933 90.0001 84.6933C90.3467 84.6933 90.6734 84.8433 91.3301 85.1433L91.9234 85.4167C94.2267 86.48 95.3801 87.0067 96.1467 86.4267C96.9134 85.8467 96.7834 84.5367 96.5301 81.92L96.4634 81.2433C96.3934 80.5 96.3567 80.13 96.4634 79.7833C96.5701 79.44 96.8101 79.16 97.2867 78.6033L97.7201 78.0967C99.3967 76.1367 100.237 75.1567 99.9434 74.2133C99.6501 73.2733 98.4201 72.9967 95.9601 72.44L95.3267 72.2933C94.6267 72.1367 94.2767 72.06 93.9934 71.8433C93.7134 71.63 93.5334 71.31 93.1734 70.6633Z" fill="white"/>
<path d="M173 90C173 135.84 135.84 173 90 173C44.1604 173 7 135.84 7 90C7 44.1604 44.1604 7 90 7C135.84 7 173 44.1604 173 90ZM10.8253 90C10.8253 133.727 46.273 169.175 90 169.175C133.727 169.175 169.175 133.727 169.175 90C169.175 46.273 133.727 10.8253 90 10.8253C46.273 10.8253 10.8253 46.273 10.8253 90Z" fill="white"/>
</svg>
