<svg width="1390" height="1854" viewBox="0 0 1390 1854" fill="none" xmlns="http://www.w3.org/2000/svg">
<g opacity="0.25">
<g clip-path="url(#clip0_88_146)">
<path d="M974.258 1556.39L990.004 1542.58L931.795 1476.22L1021.98 1397.12L964.825 1331.96L744.383 1525.31L686.174 1458.95L827.887 1334.65L770.736 1269.49L840.876 1207.97L782.667 1141.61L718.253 1198.11L661.102 1132.95L580.941 1203.26L522.732 1136.9L548.498 1114.3L491.347 1049.14L398.304 1130.75L340.095 1064.39L521.887 904.932L464.737 839.775L477.62 828.475L419.411 762.111L1288.29 -0.000277276L1346.5 66.3637L1403.65 131.521L1461.86 197.885L1519.01 263.043L1577.22 329.407L1634.37 394.564L1692.58 460.928L1749.73 526.085L1807.94 592.449L1865.09 657.607L1923.3 723.971L974.258 1556.39Z" fill="#D1DDFF"/>
<path d="M1104.52 1442.14L1042.97 1496.13L984.758 1429.76L1102.14 1326.81L1044.98 1261.65L950.51 1344.52L892.301 1278.15L1049.76 1140.04L992.608 1074.89L981.157 1084.93L922.948 1018.57L733.998 1184.3L676.848 1119.14L854.346 963.453L796.137 897.089L718.839 964.888L661.688 899.731L741.849 829.421L683.64 763.057L634.971 805.745L577.82 740.587L464.737 839.775L406.528 773.411L1288.29 -0.000399771L1346.5 66.3636L1403.65 131.521L1461.86 197.885L1519.01 263.042L1577.22 329.406L1634.37 394.564L1692.58 460.928L1749.73 526.085L1807.94 592.449L1865.09 657.607L1923.3 723.971L1104.52 1442.14Z" fill="#ACC0FF"/>
<path d="M1359.31 1218.65L1249.09 1315.33L1190.88 1248.97L1288.22 1163.59L1231.07 1098.43L1239.66 1090.9L1181.45 1024.53L1175.73 1029.56L1118.57 964.399L1061.32 1014.62L1003.11 948.256L935.831 1007.27L878.68 942.109L825.717 988.564L767.508 922.2L909.22 797.902L852.07 732.744L916.484 676.245L858.275 609.881L760.937 695.258L703.787 630.1L713.807 621.312L655.598 554.948L1288.29 -9.54546e-05L1346.5 66.3639L1403.65 131.521L1461.86 197.885L1519.01 263.043L1577.22 329.407L1634.37 394.564L1692.58 460.928L1749.73 526.086L1807.94 592.45L1865.09 657.607L1923.3 723.971L1359.31 1218.65Z" fill="#88A2FF"/>
<path d="M1463.81 1127L1359.31 1218.65L1301.11 1152.29L1289.65 1162.33L1232.5 1097.18L1281.17 1054.49L1222.96 988.123L1214.37 995.656L1157.22 930.499L1245.97 852.656L1187.76 786.292L1101.88 861.624L1044.73 796.467L1000.35 835.388L942.143 769.024L963.614 750.191L906.464 685.034L978.035 622.257L919.826 555.893L908.375 565.937L851.224 500.78L888.442 468.136L830.233 401.772L1288.29 -0.000284091L1346.5 66.3637L1403.65 131.521L1461.86 197.885L1519.01 263.043L1577.22 329.407L1634.37 394.564L1692.58 460.928L1749.73 526.085L1807.94 592.449L1865.09 657.607L1923.3 723.971L1463.81 1127Z" fill="#6484FE"/>
<path d="M1572.6 1031.58L1553.99 1047.9L1495.78 981.535L1464.29 1009.16L1407.14 944L1497.32 864.901L1439.11 798.537L1344.64 881.402L1287.48 816.245L1426.33 694.458L1368.12 628.094L1273.65 710.959L1216.5 645.802L1163.54 692.257L1105.33 625.893L1191.21 550.561L1134.06 485.403L1204.2 423.882L1145.99 357.518L1095.89 401.462L1038.74 336.304L1055.92 321.238L997.711 254.874L1288.29 -0.000307299L1346.5 66.3637L1403.65 131.521L1461.86 197.885L1519.01 263.043L1577.22 329.407L1634.37 394.564L1692.58 460.928L1749.73 526.085L1807.94 592.449L1865.09 657.607L1923.3 723.971L1572.6 1031.58Z" fill="#3F64FB"/>
<path d="M1804.49 828.18L1794.47 836.969L1736.26 770.605L1746.28 761.816L1689.13 696.659L1554.58 814.68L1496.37 748.316L1543.6 706.883L1486.45 641.725L1482.16 645.492L1423.95 579.128L1481.21 528.907L1424.06 463.749L1351.05 527.782L1292.85 461.418L1347.24 413.707L1290.09 348.55L1254.3 379.938L1196.09 313.574L1237.61 277.164L1180.45 212.006L1153.26 235.861L1095.05 169.497L1288.29 -0.000207327L1346.5 66.3638L1403.65 131.521L1461.86 197.885L1519.01 263.043L1577.22 329.407L1634.37 394.564L1692.58 460.928L1749.73 526.085L1807.94 592.449L1865.09 657.607L1923.3 723.971L1804.49 828.18Z" fill="#4476FF"/>
</g>
</g>
<defs>
<clipPath id="clip0_88_146">
<rect y="1129.98" width="1713.64" height="963" rx="43" transform="rotate(-41.2546 0 1129.98)" fill="white"/>
</clipPath>
</defs>
</svg>
