<svg width="1920" height="2699" viewBox="0 0 1920 2699" fill="none" xmlns="http://www.w3.org/2000/svg">
<g clip-path="url(#clip0_229_166)">
<path d="M0 275.428L22.8267 262.432C45.44 249.435 91.0933 223.442 136.96 203.947C182.827 184.452 228.907 171.455 274.773 164.957C320.64 158.458 366.293 158.458 411.733 171.455C457.173 184.452 502.827 210.445 548.267 216.943C593.707 223.442 639.36 210.445 685.227 203.947C731.093 197.448 777.173 197.448 823.04 210.445C868.907 223.442 914.56 249.435 960 236.438C1005.44 223.442 1051.09 171.455 1096.96 164.957C1142.83 158.458 1188.91 197.448 1234.77 197.448C1280.64 197.448 1326.29 158.458 1371.73 145.462C1417.17 132.465 1462.83 145.462 1508.27 164.957C1553.71 184.452 1599.36 210.445 1645.23 229.94C1691.09 249.435 1737.17 262.432 1783.04 242.937C1828.91 223.442 1874.56 171.455 1897.17 145.462L1920 119.468V-4H1897.17C1874.56 -4 1828.91 -4 1783.04 -4C1737.17 -4 1691.09 -4 1645.23 -4C1599.36 -4 1553.71 -4 1508.27 -4C1462.83 -4 1417.17 -4 1371.73 -4C1326.29 -4 1280.64 -4 1234.77 -4C1188.91 -4 1142.83 -4 1096.96 -4C1051.09 -4 1005.44 -4 960 -4C914.56 -4 868.907 -4 823.04 -4C777.173 -4 731.093 -4 685.227 -4C639.36 -4 593.707 -4 548.267 -4C502.827 -4 457.173 -4 411.733 -4C366.293 -4 320.64 -4 274.773 -4C228.907 -4 182.827 -4 136.96 -4C91.0933 -4 45.44 -4 22.8267 -4H0V275.428Z" fill="#B7CAFF"/>
<path d="M0 392.398L22.8267 398.897C45.44 405.395 91.0933 418.392 136.96 418.392C182.827 418.392 228.907 405.395 274.773 392.398C320.64 379.402 366.293 366.405 411.733 372.903C457.173 379.402 502.827 405.395 548.267 405.395C593.707 405.395 639.36 379.402 685.227 372.903C731.093 366.405 777.173 379.402 823.04 392.398C868.907 405.395 914.56 418.392 960 398.897C1005.44 379.402 1051.09 327.415 1096.96 320.917C1142.83 314.418 1188.91 353.408 1234.77 353.408C1280.64 353.408 1326.29 314.418 1371.73 307.92C1417.17 301.422 1462.83 327.415 1508.27 340.412C1553.71 353.408 1599.36 353.408 1645.23 359.907C1691.09 366.405 1737.17 379.402 1783.04 359.907C1828.91 340.412 1874.56 288.425 1897.17 262.432L1920 236.438V106.472L1897.17 132.465C1874.56 158.458 1828.91 210.445 1783.04 229.94C1737.17 249.435 1691.09 236.438 1645.23 216.943C1599.36 197.448 1553.71 171.455 1508.27 151.96C1462.83 132.465 1417.17 119.468 1371.73 132.465C1326.29 145.462 1280.64 184.452 1234.77 184.452C1188.91 184.452 1142.83 145.462 1096.96 151.96C1051.09 158.458 1005.44 210.445 960 223.442C914.56 236.438 868.907 210.445 823.04 197.448C777.173 184.452 731.093 184.452 685.227 190.95C639.36 197.448 593.707 210.445 548.267 203.947C502.827 197.448 457.173 171.455 411.733 158.458C366.293 145.462 320.64 145.462 274.773 151.96C228.907 158.458 182.827 171.455 136.96 190.95C91.0933 210.445 45.44 236.438 22.8267 249.435L0 262.432V392.398Z" fill="#BDCFFF"/>
<path d="M0 665.328L22.8267 671.827C45.44 678.325 91.0933 691.322 136.96 678.325C182.827 665.328 228.907 626.338 274.773 593.847C320.64 561.355 366.293 535.362 411.733 554.857C457.173 574.352 502.827 639.335 548.267 652.332C593.707 665.328 639.36 626.338 685.227 626.338C731.093 626.338 777.173 665.328 823.04 665.328C868.907 665.328 914.56 626.338 960 600.345C1005.44 574.352 1051.09 561.355 1096.96 580.85C1142.83 600.345 1188.91 652.332 1234.77 652.332C1280.64 652.332 1326.29 600.345 1371.73 593.847C1417.17 587.348 1462.83 626.338 1508.27 626.338C1553.71 626.338 1599.36 587.348 1645.23 580.85C1691.09 574.352 1737.17 600.345 1783.04 600.345C1828.91 600.345 1874.56 574.352 1897.17 561.355L1920 548.358V223.442L1897.17 249.435C1874.56 275.428 1828.91 327.415 1783.04 346.91C1737.17 366.405 1691.09 353.408 1645.23 346.91C1599.36 340.412 1553.71 340.412 1508.27 327.415C1462.83 314.418 1417.17 288.425 1371.73 294.923C1326.29 301.422 1280.64 340.412 1234.77 340.412C1188.91 340.412 1142.83 301.422 1096.96 307.92C1051.09 314.418 1005.44 366.405 960 385.9C914.56 405.395 868.907 392.398 823.04 379.402C777.173 366.405 731.093 353.408 685.227 359.907C639.36 366.405 593.707 392.398 548.267 392.398C502.827 392.398 457.173 366.405 411.733 359.907C366.293 353.408 320.64 366.405 274.773 379.402C228.907 392.398 182.827 405.395 136.96 405.395C91.0933 405.395 45.44 392.398 22.8267 385.9L0 379.402V665.328Z" fill="#C3D3FF"/>
<path d="M0 1055.23L22.8267 1061.73C45.44 1068.22 91.0933 1081.22 136.96 1048.73C182.827 1016.24 228.907 938.258 274.773 892.77C320.64 847.282 366.293 834.285 411.733 873.275C457.173 912.265 502.827 1003.24 548.267 996.743C593.707 990.245 639.36 886.272 685.227 853.78C731.093 821.288 777.173 860.278 823.04 853.78C868.907 847.282 914.56 795.295 960 775.8C1005.44 756.305 1051.09 769.302 1096.96 795.295C1142.83 821.288 1188.91 860.278 1234.77 879.773C1280.64 899.268 1326.29 899.268 1371.73 905.767C1417.17 912.265 1462.83 925.262 1508.27 899.268C1553.71 873.275 1599.36 808.292 1645.23 782.298C1691.09 756.305 1737.17 769.302 1783.04 782.298C1828.91 795.295 1874.56 808.292 1897.17 814.79L1920 821.288V535.362L1897.17 548.358C1874.56 561.355 1828.91 587.348 1783.04 587.348C1737.17 587.348 1691.09 561.355 1645.23 567.853C1599.36 574.352 1553.71 613.342 1508.27 613.342C1462.83 613.342 1417.17 574.352 1371.73 580.85C1326.29 587.348 1280.64 639.335 1234.77 639.335C1188.91 639.335 1142.83 587.348 1096.96 567.853C1051.09 548.358 1005.44 561.355 960 587.348C914.56 613.342 868.907 652.332 823.04 652.332C777.173 652.332 731.093 613.342 685.227 613.342C639.36 613.342 593.707 652.332 548.267 639.335C502.827 626.338 457.173 561.355 411.733 541.86C366.293 522.365 320.64 548.358 274.773 580.85C228.907 613.342 182.827 652.332 136.96 665.328C91.0933 678.325 45.44 665.328 22.8267 658.83L0 652.332V1055.23Z" fill="#CAD8FF"/>
<path d="M0 1445.13L22.8267 1419.13C45.44 1393.14 91.0933 1341.15 136.96 1321.66C182.827 1302.16 228.907 1315.16 274.773 1321.66C320.64 1328.16 366.293 1328.16 411.733 1334.66C457.173 1341.15 502.827 1354.15 548.267 1321.66C593.707 1289.17 639.36 1211.19 685.227 1178.7C731.093 1146.2 777.173 1159.2 823.04 1133.21C868.907 1107.21 914.56 1042.23 960 1055.23C1005.44 1068.22 1051.09 1159.2 1096.96 1204.69C1142.83 1250.18 1188.91 1250.18 1234.77 1276.17C1280.64 1302.16 1326.29 1354.15 1371.73 1341.15C1417.17 1328.16 1462.83 1250.18 1508.27 1217.69C1553.71 1185.19 1599.36 1198.19 1645.23 1204.69C1691.09 1211.19 1737.17 1211.19 1783.04 1204.69C1828.91 1198.19 1874.56 1185.19 1897.17 1178.7L1920 1172.2V808.292L1897.17 801.793C1874.56 795.295 1828.91 782.298 1783.04 769.302C1737.17 756.305 1691.09 743.308 1645.23 769.302C1599.36 795.295 1553.71 860.278 1508.27 886.272C1462.83 912.265 1417.17 899.268 1371.73 892.77C1326.29 886.272 1280.64 886.272 1234.77 866.777C1188.91 847.282 1142.83 808.292 1096.96 782.298C1051.09 756.305 1005.44 743.308 960 762.803C914.56 782.298 868.907 834.285 823.04 840.783C777.173 847.282 731.093 808.292 685.227 840.783C639.36 873.275 593.707 977.248 548.267 983.747C502.827 990.245 457.173 899.268 411.733 860.278C366.293 821.288 320.64 834.285 274.773 879.773C228.907 925.262 182.827 1003.24 136.96 1035.73C91.0933 1068.22 45.44 1055.23 22.8267 1048.73L0 1042.23V1445.13Z" fill="#D0DCFF"/>
<path d="M0 1562.1L22.8267 1555.6C45.44 1549.1 91.0933 1536.11 136.96 1523.11C182.827 1510.11 228.907 1497.12 274.773 1503.61C320.64 1510.11 366.293 1536.11 411.733 1549.1C457.173 1562.1 502.827 1562.1 548.267 1523.11C593.707 1484.12 639.36 1406.14 685.227 1360.65C731.093 1315.16 777.173 1302.17 823.04 1282.67C868.907 1263.18 914.56 1237.18 960 1250.18C1005.44 1263.18 1051.09 1315.16 1096.96 1354.15C1142.83 1393.14 1188.91 1419.14 1234.77 1451.63C1280.64 1484.12 1326.29 1523.11 1371.73 1503.61C1417.17 1484.12 1462.83 1406.14 1508.27 1367.15C1553.71 1328.16 1599.36 1328.16 1645.23 1334.66C1691.09 1341.16 1737.17 1354.15 1783.04 1354.15C1828.91 1354.15 1874.56 1341.16 1897.17 1334.66L1920 1328.16V1159.2L1897.17 1165.7C1874.56 1172.2 1828.91 1185.2 1783.04 1191.69C1737.17 1198.19 1691.09 1198.19 1645.23 1191.69C1599.36 1185.2 1553.71 1172.2 1508.27 1204.69C1462.83 1237.18 1417.17 1315.16 1371.73 1328.16C1326.29 1341.16 1280.64 1289.17 1234.77 1263.18C1188.91 1237.18 1142.83 1237.18 1096.96 1191.69C1051.09 1146.21 1005.44 1055.23 960 1042.23C914.56 1029.24 868.907 1094.22 823.04 1120.21C777.173 1146.21 731.093 1133.21 685.227 1165.7C639.36 1198.19 593.707 1276.17 548.267 1308.66C502.827 1341.16 457.173 1328.16 411.733 1321.66C366.293 1315.16 320.64 1315.16 274.773 1308.66C228.907 1302.17 182.827 1289.17 136.96 1308.66C91.0933 1328.16 45.44 1380.15 22.8267 1406.14L0 1432.13V1562.1Z" fill="#D6E1FF"/>
<path d="M0 2068.97L22.8267 2029.98C45.44 1990.99 91.0933 1913.01 136.96 1867.52C182.827 1822.03 228.907 1809.04 274.773 1809.04C320.64 1809.04 366.293 1822.03 411.733 1822.03C457.173 1822.03 502.827 1809.04 548.267 1822.03C593.707 1835.03 639.36 1874.02 685.227 1861.02C731.093 1848.03 777.173 1783.04 823.04 1783.04C868.907 1783.04 914.56 1848.03 960 1835.03C1005.44 1822.03 1051.09 1731.06 1096.96 1718.06C1142.83 1705.06 1188.91 1770.05 1234.77 1848.03C1280.64 1926.01 1326.29 2016.98 1371.73 1990.99C1417.17 1965 1462.83 1822.03 1508.27 1757.05C1553.71 1692.07 1599.36 1705.06 1645.23 1731.06C1691.09 1757.05 1737.17 1796.04 1783.04 1802.54C1828.91 1809.04 1874.56 1783.04 1897.17 1770.05L1920 1757.05V1315.16L1897.17 1321.66C1874.56 1328.16 1828.91 1341.15 1783.04 1341.15C1737.17 1341.15 1691.09 1328.16 1645.23 1321.66C1599.36 1315.16 1553.71 1315.16 1508.27 1354.15C1462.83 1393.14 1417.17 1471.12 1371.73 1490.62C1326.29 1510.11 1280.64 1471.12 1234.77 1438.63C1188.91 1406.14 1142.83 1380.14 1096.96 1341.15C1051.09 1302.16 1005.44 1250.18 960 1237.18C914.56 1224.18 868.907 1250.18 823.04 1269.67C777.173 1289.17 731.093 1302.16 685.227 1347.65C639.36 1393.14 593.707 1471.12 548.267 1510.11C502.827 1549.1 457.173 1549.1 411.733 1536.11C366.293 1523.11 320.64 1497.11 274.773 1490.62C228.907 1484.12 182.827 1497.11 136.96 1510.11C91.0933 1523.11 45.44 1536.11 22.8267 1542.6L0 1549.1V2068.97Z" fill="#D9E3FF"/>
<path d="M0 2302.91L22.8267 2250.92C45.44 2198.93 91.0933 2094.96 136.96 2029.98C182.827 1964.99 228.907 1939 274.773 1945.5C320.64 1952 366.293 1990.99 411.733 2003.98C457.173 2016.98 502.827 2003.98 548.267 2016.98C593.707 2029.98 639.36 2068.97 685.227 2042.97C731.093 2016.98 777.173 1926 823.04 1919.51C868.907 1913.01 914.56 1990.99 960 2003.98C1005.44 2016.98 1051.09 1964.99 1096.96 1958.5C1142.83 1952 1188.91 1990.99 1234.77 2068.97C1280.64 2146.95 1326.29 2263.92 1371.73 2231.43C1417.17 2198.93 1462.83 2016.98 1508.27 1939C1553.71 1861.02 1599.36 1887.01 1645.23 1919.51C1691.09 1952 1737.17 1990.99 1783.04 1990.99C1828.91 1990.99 1874.56 1952 1897.17 1932.5L1920 1913.01V1744.05L1897.17 1757.05C1874.56 1770.04 1828.91 1796.04 1783.04 1789.54C1737.17 1783.04 1691.09 1744.05 1645.23 1718.06C1599.36 1692.06 1553.71 1679.07 1508.27 1744.05C1462.83 1809.03 1417.17 1952 1371.73 1977.99C1326.29 2003.98 1280.64 1913.01 1234.77 1835.03C1188.91 1757.05 1142.83 1692.06 1096.96 1705.06C1051.09 1718.06 1005.44 1809.03 960 1822.03C914.56 1835.03 868.907 1770.04 823.04 1770.04C777.173 1770.04 731.093 1835.03 685.227 1848.02C639.36 1861.02 593.707 1822.03 548.267 1809.03C502.827 1796.04 457.173 1809.03 411.733 1809.03C366.293 1809.03 320.64 1796.04 274.773 1796.04C228.907 1796.04 182.827 1809.03 136.96 1854.52C91.0933 1900.01 45.44 1977.99 22.8267 2016.98L0 2055.97V2302.91Z" fill="#DCE5FF"/>
<path d="M0 3004.73L22.8267 2926.75C45.44 2848.77 91.0933 2692.81 136.96 2621.33C182.827 2549.84 228.907 2562.84 274.773 2660.32C320.64 2757.79 366.293 2939.74 411.733 2991.73C457.173 3043.72 502.827 2965.74 548.267 2972.24C593.707 2978.73 639.36 3069.71 685.227 3037.22C731.093 3004.73 777.173 2848.77 823.04 2783.78C868.907 2718.8 914.56 2744.79 960 2777.29C1005.44 2809.78 1051.09 2848.77 1096.96 2835.77C1142.83 2822.77 1188.91 2757.79 1234.77 2764.29C1280.64 2770.79 1326.29 2848.77 1371.73 2842.27C1417.17 2835.77 1462.83 2744.79 1508.27 2731.8C1553.71 2718.8 1599.36 2783.78 1645.23 2822.77C1691.09 2861.76 1737.17 2874.76 1783.04 2874.76C1828.91 2874.76 1874.56 2861.76 1897.17 2855.27L1920 2848.77V1900.01L1897.17 1919.51C1874.56 1939 1828.91 1977.99 1783.04 1977.99C1737.17 1977.99 1691.09 1939 1645.23 1906.51C1599.36 1874.02 1553.71 1848.02 1508.27 1926C1462.83 2003.98 1417.17 2185.94 1371.73 2218.43C1326.29 2250.92 1280.64 2133.95 1234.77 2055.97C1188.91 1977.99 1142.83 1939 1096.96 1945.5C1051.09 1952 1005.44 2003.98 960 1990.99C914.56 1977.99 868.907 1900.01 823.04 1906.51C777.173 1913.01 731.093 2003.98 685.227 2029.98C639.36 2055.97 593.707 2016.98 548.267 2003.98C502.827 1990.99 457.173 2003.98 411.733 1990.99C366.293 1977.99 320.64 1939 274.773 1932.5C228.907 1926 182.827 1952 136.96 2016.98C91.0933 2081.96 45.44 2185.94 22.8267 2237.92L0 2289.91V3004.73Z" fill="#DEE7FF"/>
<path d="M0 3745.54L22.8267 3732.54C45.44 3719.55 91.0933 3693.55 136.96 3680.56C182.827 3667.56 228.907 3667.56 274.773 3654.56C320.64 3641.57 366.293 3615.57 411.733 3596.08C457.173 3576.58 502.827 3563.59 548.267 3563.59C593.707 3563.59 639.36 3576.58 685.227 3596.08C731.093 3615.57 777.173 3641.57 823.04 3635.07C868.907 3628.57 914.56 3589.58 960 3596.08C1005.44 3602.58 1051.09 3654.56 1096.96 3687.05C1142.83 3719.55 1188.91 3732.54 1234.77 3726.04C1280.64 3719.55 1326.29 3693.55 1371.73 3693.55C1417.17 3693.55 1462.83 3719.55 1508.27 3713.05C1553.71 3706.55 1599.36 3667.56 1645.23 3635.07C1691.09 3602.58 1737.17 3576.58 1783.04 3563.59C1828.91 3550.59 1874.56 3550.59 1897.17 3550.59H1920V2835.77L1897.17 2842.27C1874.56 2848.77 1828.91 2861.77 1783.04 2861.77C1737.17 2861.77 1691.09 2848.77 1645.23 2809.78C1599.36 2770.79 1553.71 2705.81 1508.27 2718.8C1462.83 2731.8 1417.17 2822.78 1371.73 2829.27C1326.29 2835.77 1280.64 2757.79 1234.77 2751.29C1188.91 2744.8 1142.83 2809.78 1096.96 2822.78C1051.09 2835.77 1005.44 2796.78 960 2764.29C914.56 2731.8 868.907 2705.81 823.04 2770.79C777.173 2835.77 731.093 2991.73 685.227 3024.22C639.36 3056.72 593.707 2965.74 548.267 2959.24C502.827 2952.74 457.173 3030.72 411.733 2978.74C366.293 2926.75 320.64 2744.8 274.773 2647.32C228.907 2549.85 182.827 2536.85 136.96 2608.33C91.0933 2679.81 45.44 2835.77 22.8267 2913.75L0 2991.73V3745.54Z" fill="#E1E9FF"/>
</g>
<defs>
<clipPath id="clip0_229_166">
<rect width="1920" height="3899" fill="white" transform="translate(0 -4)"/>
</clipPath>
</defs>
</svg>
