<svg width="86" height="86" viewBox="0 0 86 86" fill="none" xmlns="http://www.w3.org/2000/svg">
<circle cx="43" cy="43" r="43" fill="#0142F4"/>
<path d="M43.1383 21.4097C45.4811 21.4097 47.7279 22.3403 49.3845 23.9969C51.041 25.6535 51.9717 27.9003 51.9717 30.243C51.9717 32.5857 51.041 34.8325 49.3845 36.4891C47.7279 38.1457 45.4811 39.0763 43.1383 39.0763C40.7956 39.0763 38.5488 38.1457 36.8922 36.4891C35.2357 34.8325 34.305 32.5857 34.305 30.243C34.305 27.9003 35.2357 25.6535 36.8922 23.9969C38.5488 22.3403 40.7956 21.4097 43.1383 21.4097ZM43.1383 43.493C52.8992 43.493 60.805 47.4459 60.805 52.3263V56.743H25.4717V52.3263C25.4717 47.4459 33.3775 43.493 43.1383 43.493Z" fill="white"/>
</svg>
