<svg width="86" height="86" viewBox="0 0 86 86" fill="none" xmlns="http://www.w3.org/2000/svg">
<circle cx="43" cy="43" r="43" fill="#0142F4"/>
<path d="M58.295 31.4748L57.3121 32.4577C56.8117 32.9581 56.133 33.2392 55.4254 33.2392C54.7177 33.2392 54.039 32.9581 53.5387 32.4577C53.0383 31.9573 52.7572 31.2787 52.7572 30.571C52.7572 29.8634 53.0383 29.1847 53.5387 28.6843L54.5215 27.7014L48.2576 21.4375L40.3514 29.3438L39.992 30.43L38.9058 30.7893L21.4375 48.2577L27.705 54.5252L28.6879 53.5423C29.1883 53.0419 29.8669 52.7608 30.5746 52.7608C31.2823 52.7608 31.9609 53.0419 32.4613 53.5423C32.9617 54.0427 33.2428 54.7213 33.2428 55.429C33.2428 56.1366 32.9617 56.8153 32.4613 57.3157L31.4784 58.2986L37.7423 64.5625L55.208 47.0969L55.5673 46.0107L56.6535 45.6513L64.5598 37.745L58.295 31.4748ZM39.5572 31.9627L41.5221 29.9978L44.4869 32.9627L42.5211 34.9275L39.5572 31.9627ZM43.4205 35.826L45.3862 33.8602L48.308 36.7819L46.3422 38.7477L43.4205 35.826ZM47.2442 39.6497L49.21 37.6839L52.1317 40.6057L50.1695 42.5759L47.2442 39.6497ZM54.0337 46.4383L51.0689 43.4735L53.0337 41.5077L55.9986 44.4725L54.0337 46.4383Z" fill="white"/>
</svg>
