<svg width="86" height="86" viewBox="0 0 86 86" fill="none" xmlns="http://www.w3.org/2000/svg">
<circle cx="43" cy="43" r="43" fill="white"/>
<path d="M51.55 53.25L50.7 52.4C50.4 52.1 50.042 51.95 49.626 51.95C49.21 51.95 48.8513 52.1 48.55 52.4C48.25 52.7 48.1 53.05 48.1 53.45C48.1 53.85 48.25 54.2 48.55 54.5L50.5 56.45C50.8 56.75 51.15 56.9 51.55 56.9C51.95 56.9 52.3 56.75 52.6 56.45L57.45 51.7C57.75 51.4 57.9 51.0413 57.9 50.624C57.9 50.2067 57.75 49.8487 57.45 49.55C57.15 49.25 56.7913 49.1 56.374 49.1C55.9567 49.1 55.5987 49.25 55.3 49.55L51.55 53.25ZM51 35C51.5667 35 52.042 34.808 52.426 34.424C52.81 34.04 53.0013 33.5653 53 33C53 32.4333 52.808 31.958 52.424 31.574C52.04 31.19 51.5653 30.9987 51 31H31C30.4333 31 29.958 31.192 29.574 31.576C29.19 31.96 28.9987 32.4347 29 33C29 33.5667 29.192 34.042 29.576 34.426C29.96 34.81 30.4347 35.0013 31 35H51ZM53 63C50.2333 63 47.8753 62.0247 45.926 60.074C43.9767 58.1233 43.0013 55.7653 43 53C43 50.2333 43.9753 47.8747 45.926 45.924C47.8767 43.9733 50.2347 42.9987 53 43C55.7667 43 58.1253 43.9753 60.076 45.926C62.0267 47.8767 63.0013 50.2347 63 53C63 55.7667 62.0247 58.1253 60.074 60.076C58.1233 62.0267 55.7653 63.0013 53 63ZM27 23H55C56.1 23 57.042 23.392 57.826 24.176C58.61 24.96 59.0013 25.9013 59 27V40.35C58.0667 39.8833 57.0913 39.5413 56.074 39.324C55.0567 39.1067 54.032 38.9987 53 39H31C30.4333 39 29.958 39.192 29.574 39.576C29.19 39.96 28.9987 40.4347 29 41C29 41.5667 29.192 42.042 29.576 42.426C29.96 42.81 30.4347 43.0013 31 43H43.2C42.6333 43.5667 42.1087 44.1833 41.626 44.85C41.1433 45.5167 40.718 46.2333 40.35 47H31C30.4333 47 29.958 47.192 29.574 47.576C29.19 47.96 28.9987 48.4347 29 49C29 49.5667 29.192 50.042 29.576 50.426C29.96 50.81 30.4347 51.0013 31 51H39.15C39.0833 51.3333 39.0413 51.6587 39.024 51.976C39.0067 52.2933 38.9987 52.6347 39 53C39 54.4 39.192 55.742 39.576 57.026C39.96 58.31 40.5347 59.5347 41.3 60.7C41.1333 60.7333 40.958 60.708 40.774 60.624C40.59 60.54 40.432 60.432 40.3 60.3L38.7 58.7C38.5 58.5 38.2667 58.4 38 58.4C37.7333 58.4 37.5 58.5 37.3 58.7L35.7 60.3C35.5 60.5 35.2667 60.6 35 60.6C34.7333 60.6 34.5 60.5 34.3 60.3L32.7 58.7C32.5 58.5 32.2667 58.4 32 58.4C31.7333 58.4 31.5 58.5 31.3 58.7L29.7 60.3C29.5 60.5 29.2667 60.6 29 60.6C28.7333 60.6 28.5 60.5 28.3 60.3L26.7 58.7C26.5 58.5 26.2667 58.4 26 58.4C25.7333 58.4 25.5 58.5 25.3 58.7L23.7 60.3L23 60.75V27C23 25.9 23.392 24.958 24.176 24.174C24.96 23.39 25.9013 22.9987 27 23Z" fill="#0142F4"/>
</svg>
