<svg width="86" height="86" viewBox="0 0 86 86" fill="none" xmlns="http://www.w3.org/2000/svg">
<circle cx="43" cy="43" r="43" fill="white"/>
<path d="M21.0553 32.1582L41.1038 41.8391C41.6258 42.088 42.3225 42.218 43.0121 42.218C43.7017 42.218 44.3984 42.088 44.9195 41.8391L64.9679 32.1582C66.0221 31.6504 66.0221 30.8196 64.9679 30.3098L44.9195 20.6288C44.3984 20.38 43.7007 20.25 43.0121 20.25C42.3235 20.25 41.6258 20.38 41.1038 20.6288L21.0553 30.3098C20.0011 30.8196 20.0011 31.6484 21.0553 32.1582Z" fill="#0142F4" fill-opacity="0.8"/>
<path d="M64.9679 42.0758C64.9679 42.0758 61.3066 40.3107 60.8211 40.073C60.3356 39.8354 60.2046 39.8486 59.6948 40.0852C59.1849 40.3218 44.9073 47.2179 44.9073 47.2179C44.3055 47.4778 43.6554 47.6073 43 47.5978C42.3124 47.5978 41.6136 47.4668 41.0926 47.2179C41.0926 47.2179 27.1938 40.5148 26.5418 40.1918C25.8359 39.8516 25.6328 39.8516 24.9899 40.1563L21.0289 42.0636C19.9747 42.5715 19.9747 43.4033 21.0289 43.9121L41.0804 53.593C41.6014 53.8418 42.2992 53.9718 42.9878 53.9718C43.6764 53.9718 44.3741 53.8418 44.8961 53.593L64.9446 43.9141C66.0221 43.4144 66.0221 42.5857 64.9679 42.0758Z" fill="#0142F4" fill-opacity="0.8"/>
<path d="M64.9678 53.8418C64.9678 53.8418 61.3065 52.0766 60.821 51.8359C60.3355 51.5952 60.2045 51.6115 59.6947 51.8481C59.1848 52.0847 44.9193 58.9961 44.9193 58.9961C44.3174 59.2555 43.6674 59.3846 43.012 59.3749C42.3244 59.3749 41.6257 59.2449 41.1036 58.9961C41.1036 58.9961 27.2048 52.2929 26.5538 51.97C25.8429 51.6257 25.6397 51.6257 25.0009 51.9344L21.04 53.8418C19.9847 54.3496 19.9847 55.1804 21.04 55.6902L41.0884 65.3711C41.6094 65.6311 42.3072 65.75 42.9958 65.75C43.6843 65.75 44.3821 65.62 44.9031 65.3711L64.9556 55.6953C66.022 55.1804 66.022 54.3516 64.9678 53.8418Z" fill="#0142F4" fill-opacity="0.8"/>
</svg>
