<svg width="1440" height="969" viewBox="0 0 1440 969" fill="none" xmlns="http://www.w3.org/2000/svg">
<path d="M0 88.825L26.72 87.21C53.28 85.595 106.72 82.365 160 82.365C213.28 82.365 266.72 85.595 320 90.44C373.28 95.285 426.72 101.745 480 106.59C533.28 111.435 586.72 114.665 640 114.665C693.28 114.665 746.72 111.435 800 106.59C853.28 101.745 906.72 95.285 960 96.9C1013.28 98.515 1066.72 108.205 1120 109.82C1173.28 111.435 1226.72 104.975 1280 103.36C1333.28 101.745 1386.72 104.975 1413.28 106.59L1440 108.205V0H1413.28C1386.72 0 1333.28 0 1280 0C1226.72 0 1173.28 0 1120 0C1066.72 0 1013.28 0 960 0C906.72 0 853.28 0 800 0C746.72 0 693.28 0 640 0C586.72 0 533.28 0 480 0C426.72 0 373.28 0 320 0C266.72 0 213.28 0 160 0C106.72 0 53.28 0 26.72 0H0V88.825Z" fill="#004CBB"/>
<path d="M0 137.275L26.72 134.045C53.28 130.815 106.72 124.355 160 124.355C213.28 124.355 266.72 130.815 320 140.505C373.28 150.195 426.72 163.115 480 164.73C533.28 166.345 586.72 156.655 640 155.04C693.28 153.425 746.72 159.885 800 158.27C853.28 156.655 906.72 146.965 960 145.35C1013.28 143.735 1066.72 150.195 1120 151.81C1173.28 153.425 1226.72 150.195 1280 150.195C1333.28 150.195 1386.72 153.425 1413.28 155.04L1440 156.655V104.975L1413.28 103.36C1386.72 101.745 1333.28 98.515 1280 100.13C1226.72 101.745 1173.28 108.205 1120 106.59C1066.72 104.975 1013.28 95.285 960 93.67C906.72 92.055 853.28 98.515 800 103.36C746.72 108.205 693.28 111.435 640 111.435C586.72 111.435 533.28 108.205 480 103.36C426.72 98.515 373.28 92.055 320 87.21C266.72 82.365 213.28 79.135 160 79.135C106.72 79.135 53.28 82.365 26.72 83.98L0 85.595V137.275Z" fill="#0052CA"/>
<path d="M0 205.105L26.72 201.875C53.28 198.645 106.72 192.185 160 193.8C213.28 195.415 266.72 205.105 320 214.795C373.28 224.485 426.72 234.175 480 237.405C533.28 240.635 586.72 237.405 640 230.945C693.28 224.485 746.72 214.795 800 209.95C853.28 205.105 906.72 205.105 960 205.105C1013.28 205.105 1066.72 205.105 1120 203.49C1173.28 201.875 1226.72 198.645 1280 205.105C1333.28 211.565 1386.72 227.715 1413.28 235.79L1440 243.865V153.425L1413.28 151.81C1386.72 150.195 1333.28 146.965 1280 146.965C1226.72 146.965 1173.28 150.195 1120 148.58C1066.72 146.965 1013.28 140.505 960 142.12C906.72 143.735 853.28 153.425 800 155.04C746.72 156.655 693.28 150.195 640 151.81C586.72 153.425 533.28 163.115 480 161.5C426.72 159.885 373.28 146.965 320 137.275C266.72 127.585 213.28 121.125 160 121.125C106.72 121.125 53.28 127.585 26.72 130.815L0 134.045V205.105Z" fill="#0057D9"/>
<path d="M0 379.525L26.72 371.45C53.28 363.375 106.72 347.225 160 337.535C213.28 327.845 266.72 324.615 320 321.385C373.28 318.155 426.72 314.925 480 316.54C533.28 318.155 586.72 324.615 640 329.46C693.28 334.305 746.72 337.535 800 342.38C853.28 347.225 906.72 353.685 960 348.84C1013.28 343.995 1066.72 327.845 1120 327.845C1173.28 327.845 1226.72 343.995 1280 348.84C1333.28 353.685 1386.72 347.225 1413.28 343.995L1440 340.765V240.635L1413.28 232.56C1386.72 224.485 1333.28 208.335 1280 201.875C1226.72 195.415 1173.28 198.645 1120 200.26C1066.72 201.875 1013.28 201.875 960 201.875C906.72 201.875 853.28 201.875 800 206.72C746.72 211.565 693.28 221.255 640 227.715C586.72 234.175 533.28 237.405 480 234.175C426.72 230.945 373.28 221.255 320 211.565C266.72 201.875 213.28 192.185 160 190.57C106.72 188.955 53.28 195.415 26.72 198.645L0 201.875V379.525Z" fill="#005DE8"/>
<path d="M0 437.665L26.72 429.59C53.28 421.515 106.72 405.365 160 394.06C213.28 382.755 266.72 376.295 320 368.22C373.28 360.145 426.72 350.455 480 353.685C533.28 356.915 586.72 373.065 640 382.755C693.28 392.445 746.72 395.675 800 398.905C853.28 402.135 906.72 405.365 960 398.905C1013.28 392.445 1066.72 376.295 1120 376.295C1173.28 376.295 1226.72 392.445 1280 395.675C1333.28 398.905 1386.72 389.215 1413.28 384.37L1440 379.525V337.535L1413.28 340.765C1386.72 343.995 1333.28 350.455 1280 345.61C1226.72 340.765 1173.28 324.615 1120 324.615C1066.72 324.615 1013.28 340.765 960 345.61C906.72 350.455 853.28 343.995 800 339.15C746.72 334.305 693.28 331.075 640 326.23C586.72 321.385 533.28 314.925 480 313.31C426.72 311.695 373.28 314.925 320 318.155C266.72 321.385 213.28 324.615 160 334.305C106.72 343.995 53.28 360.145 26.72 368.22L0 376.295V437.665Z" fill="#0063F7"/>
<path d="M0 515.185L26.72 503.88C53.28 492.575 106.72 469.965 160 455.43C213.28 440.895 266.72 434.435 320 429.59C373.28 424.745 426.72 421.515 480 427.975C533.28 434.435 586.72 450.585 640 457.045C693.28 463.505 746.72 460.275 800 458.66C853.28 457.045 906.72 457.045 960 452.2C1013.28 447.355 1066.72 437.665 1120 439.28C1173.28 440.895 1226.72 453.815 1280 458.66C1333.28 463.505 1386.72 460.275 1413.28 458.66L1440 457.045V376.295L1413.28 381.14C1386.72 385.985 1333.28 395.675 1280 392.445C1226.72 389.215 1173.28 373.065 1120 373.065C1066.72 373.065 1013.28 389.215 960 395.675C906.72 402.135 853.28 398.905 800 395.675C746.72 392.445 693.28 389.215 640 379.525C586.72 369.835 533.28 353.685 480 350.455C426.72 347.225 373.28 356.915 320 364.99C266.72 373.065 213.28 379.525 160 390.83C106.72 402.135 53.28 418.285 26.72 426.36L0 434.435V515.185Z" fill="#156CFF"/>
<path d="M0 544.255L26.72 537.795C53.28 531.335 106.72 518.415 160 510.34C213.28 502.265 266.72 499.035 320 492.575C373.28 486.115 426.72 476.425 480 478.04C533.28 479.655 586.72 492.575 640 502.265C693.28 511.955 746.72 518.415 800 520.03C853.28 521.645 906.72 518.415 960 511.955C1013.28 505.495 1066.72 495.805 1120 494.19C1173.28 492.575 1226.72 499.035 1280 500.65C1333.28 502.265 1386.72 499.035 1413.28 497.42L1440 495.805V453.815L1413.28 455.43C1386.72 457.045 1333.28 460.275 1280 455.43C1226.72 450.585 1173.28 437.665 1120 436.05C1066.72 434.435 1013.28 444.125 960 448.97C906.72 453.815 853.28 453.815 800 455.43C746.72 457.045 693.28 460.275 640 453.815C586.72 447.355 533.28 431.205 480 424.745C426.72 418.285 373.28 421.515 320 426.36C266.72 431.205 213.28 437.665 160 452.2C106.72 466.735 53.28 489.345 26.72 500.65L0 511.955V544.255Z" fill="#2D77FF"/>
<path d="M0 699.295L26.72 696.065C53.28 692.835 106.72 686.375 160 689.605C213.28 692.835 266.72 705.755 320 704.14C373.28 702.525 426.72 686.375 480 675.07C533.28 663.765 586.72 657.305 640 666.995C693.28 676.685 746.72 702.525 800 710.6C853.28 718.675 906.72 708.985 960 712.215C1013.28 715.445 1066.72 731.595 1120 726.75C1173.28 721.905 1226.72 696.065 1280 689.605C1333.28 683.145 1386.72 696.065 1413.28 702.525L1440 708.985V492.575L1413.28 494.19C1386.72 495.805 1333.28 499.035 1280 497.42C1226.72 495.805 1173.28 489.345 1120 490.96C1066.72 492.575 1013.28 502.265 960 508.725C906.72 515.185 853.28 518.415 800 516.8C746.72 515.185 693.28 508.725 640 499.035C586.72 489.345 533.28 476.425 480 474.81C426.72 473.195 373.28 482.885 320 489.345C266.72 495.805 213.28 499.035 160 507.11C106.72 515.185 53.28 528.105 26.72 534.565L0 541.025V699.295Z" fill="#4082FF"/>
<path d="M0 922.165L26.72 914.09C53.28 906.015 106.72 889.865 160 881.79C213.28 873.715 266.72 873.715 320 875.33C373.28 876.945 426.72 880.175 480 881.79C533.28 883.405 586.72 883.405 640 886.635C693.28 889.865 746.72 896.325 800 896.325C853.28 896.325 906.72 889.865 960 886.635C1013.28 883.405 1066.72 883.405 1120 888.25C1173.28 893.095 1226.72 902.785 1280 907.63C1333.28 912.475 1386.72 912.475 1413.28 912.475H1440V705.755L1413.28 699.295C1386.72 692.835 1333.28 679.915 1280 686.375C1226.72 692.835 1173.28 718.675 1120 723.52C1066.72 728.365 1013.28 712.215 960 708.985C906.72 705.755 853.28 715.445 800 707.37C746.72 699.295 693.28 673.455 640 663.765C586.72 654.075 533.28 660.535 480 671.84C426.72 683.145 373.28 699.295 320 700.91C266.72 702.525 213.28 689.605 160 686.375C106.72 683.145 53.28 689.605 26.72 692.835L0 696.065V922.165Z" fill="#518DFF"/>
<path d="M0 970.615H26.72C53.28 970.615 106.72 970.615 160 970.615C213.28 970.615 266.72 970.615 320 970.615C373.28 970.615 426.72 970.615 480 970.615C533.28 970.615 586.72 970.615 640 970.615C693.28 970.615 746.72 970.615 800 970.615C853.28 970.615 906.72 970.615 960 970.615C1013.28 970.615 1066.72 970.615 1120 970.615C1173.28 970.615 1226.72 970.615 1280 970.615C1333.28 970.615 1386.72 970.615 1413.28 970.615H1440V909.245H1413.28C1386.72 909.245 1333.28 909.245 1280 904.4C1226.72 899.555 1173.28 889.865 1120 885.02C1066.72 880.175 1013.28 880.175 960 883.405C906.72 886.635 853.28 893.095 800 893.095C746.72 893.095 693.28 886.635 640 883.405C586.72 880.175 533.28 880.175 480 878.56C426.72 876.945 373.28 873.715 320 872.1C266.72 870.485 213.28 870.485 160 878.56C106.72 886.635 53.28 902.785 26.72 910.86L0 918.935V970.615Z" fill="#6198FF"/>
</svg>
